<?xml version="1.0" encoding="UTF-8" standalone="no"?>
<!-- Generator: Adobe Illustrator 15.0.0, SVG Export Plug-In . SVG Version: 6.00 Build 0)  -->

<svg
   xmlns:dc="http://purl.org/dc/elements/1.1/"
   xmlns:cc="http://creativecommons.org/ns#"
   xmlns:rdf="http://www.w3.org/1999/02/22-rdf-syntax-ns#"
   xmlns:svg="http://www.w3.org/2000/svg"
   xmlns="http://www.w3.org/2000/svg"
   xmlns:sodipodi="http://sodipodi.sourceforge.net/DTD/sodipodi-0.dtd"
   xmlns:inkscape="http://www.inkscape.org/namespaces/inkscape"
   version="1.1"
   id="Layer_1"
   x="0px"
   y="0px"
   width="64"
   height="64"
   viewBox="0 0 64 64"
   xml:space="preserve"
   sodipodi:docname="ICON.svg"
   inkscape:version="0.92.4 (5da689c313, 2019-01-14)"
   inkscape:export-filename="..\ICON.png"
   inkscape:export-xdpi="96"
   inkscape:export-ydpi="96"><metadata
   id="metadata833"><rdf:RDF><cc:Work
       rdf:about=""><dc:format>image/svg+xml</dc:format><dc:type
         rdf:resource="http://purl.org/dc/dcmitype/StillImage" /><dc:title /></cc:Work></rdf:RDF></metadata><defs
   id="defs831" /><sodipodi:namedview
   pagecolor="#ffffff"
   bordercolor="#666666"
   borderopacity="1"
   objecttolerance="10"
   gridtolerance="10"
   guidetolerance="10"
   inkscape:pageopacity="0"
   inkscape:pageshadow="2"
   inkscape:window-width="1842"
   inkscape:window-height="1051"
   id="namedview829"
   showgrid="false"
   inkscape:zoom="16"
   inkscape:cx="31.943394"
   inkscape:cy="31.993259"
   inkscape:window-x="-9"
   inkscape:window-y="-9"
   inkscape:window-maximized="1"
   inkscape:current-layer="Layer_1" />



<g
   id="g855"
   transform="matrix(1.8823529,0,0,1.8823529,-3.7647059,-3.7647059)"><path
     sodipodi:nodetypes="sscccssscc"
     inkscape:connector-curvature="0"
     class="st0"
     d="m 19,2 c 9.374,0 17,7.626 17,17 0,8.304 -6.011,15.3 -14,16.725 L 20,36 c -1,0 -6.626281,-36.18079378 0,0 H 19 C 9.626,36 2,28.374 2,19 2,9.626 9.626,2 19,2 Z m 1,26 c -13.3333333,6.666667 -6.666667,3.333333 0,0 z"
     style="opacity:1;fill:#ffffff;fill-opacity:1;stroke:none"
     id="path841" /><circle
     style="fill:#85c3de"
     r="11"
     cy="19"
     cx="19"
     class="stshockcolor"
     id="268154933_shock_x5F_color_grid" /><path
     sodipodi:nodetypes="ssccssssccsss"
     id="path826"
     style="opacity:0.8;fill:#231f20"
     d="m 19,2 c 9.374,0 17,7.626 17,17 0,8.304 -6.011,15.3 -14,16.725 V 33.7 C 28.847,32.309 34,26.257 34,19 34,10.716 27.284,4 19,4 10.716,4 4,10.716 4,19 c 0,8.284 6.716,15 15,15 0.338,0 0.668,-0.028 1,-0.05 V 36 H 19 C 9.626,36 2,28.374 2,19 2,9.626 9.626,2 19,2 Z"
     class="st0"
     inkscape:connector-curvature="0" /><path
     sodipodi:nodetypes="ccccccccccccc"
     inkscape:connector-curvature="0"
     id="path826-1"
     style="opacity:0.8;fill:#231f20;stroke-width:0.73333335"
     d="m 20.466667,24.150566 -2.933334,-6.662333 -0.988534,2.244733 H 8 v -1.466667 h 7.588533 l 1.9448,-4.416866 2.933334,6.6616 0.988533,-2.244734 H 30 v 1.466667 h -7.588533 z"
     class="st0" /></g></svg>